<svg width="1090" height="430" viewBox="0 0 1090 430" fill="none" xmlns="http://www.w3.org/2000/svg">
<g filter="url(#filter0_d_15_4)">
<path d="M30.4875 8.96472H1059.49V365.04C1059.49 366.216 1059.07 367.345 1058.32 368.177C1057.57 369.009 1056.55 369.477 1055.49 369.477H34.4875C33.4267 369.477 32.4093 369.009 31.6591 368.177C30.909 367.345 30.4875 366.216 30.4875 365.04V8.96472Z" fill="white"/>
</g>
<path d="M30.4875 8.96472H1059.49C1059.49 9.55311 1059.28 10.1174 1058.9 10.5335C1058.53 10.9495 1058.02 11.1833 1057.49 11.1833H32.4875C31.9571 11.1833 31.4484 10.9495 31.0733 10.5335C30.6983 10.1174 30.4875 9.55311 30.4875 8.96472V8.96472Z" fill="#F1F3F4"/>
<path d="M241.988 0.0905762L250.108 10.074H233.868L241.988 0.0905762Z" fill="#F1F3F4"/>
<defs>
<filter id="filter0_d_15_4" x="0.487549" y="8.96472" width="1089" height="420.512" filterUnits="userSpaceOnUse" color-interpolation-filters="sRGB">
<feFlood flood-opacity="0" result="BackgroundImageFix"/>
<feColorMatrix in="SourceAlpha" type="matrix" values="0 0 0 0 0 0 0 0 0 0 0 0 0 0 0 0 0 0 127 0" result="hardAlpha"/>
<feOffset dy="30"/>
<feGaussianBlur stdDeviation="15"/>
<feColorMatrix type="matrix" values="0 0 0 0 0 0 0 0 0 0 0 0 0 0 0 0 0 0 0.102 0"/>
<feBlend mode="normal" in2="BackgroundImageFix" result="effect1_dropShadow_15_4"/>
<feBlend mode="normal" in="SourceGraphic" in2="effect1_dropShadow_15_4" result="shape"/>
</filter>
</defs>
</svg>
