<svg width="47" height="47" viewBox="0 0 47 47" fill="none" xmlns="http://www.w3.org/2000/svg">
<path fill-rule="evenodd" clip-rule="evenodd" d="M26.1512 18.3337C26.7287 18.3347 27.2938 18.5024 27.7784 18.8166C28.263 19.1308 28.6466 19.5783 28.8831 20.1052C29.1196 20.6321 29.199 21.2161 29.1117 21.787C29.0245 22.3579 28.7743 22.8915 28.3912 23.3237C27.8412 23.9437 23.1512 28.3337 23.1512 28.3337C23.1512 28.3337 18.4512 23.9437 17.9012 23.3137C17.416 22.7685 17.149 22.0636 17.1512 21.3337C17.1512 20.5381 17.4672 19.775 18.0298 19.2124C18.5924 18.6498 19.3555 18.3337 20.1512 18.3337C20.9468 18.3337 21.7099 18.6498 22.2725 19.2124C22.8351 19.775 23.1512 20.5381 23.1512 21.3337C23.1512 20.5381 23.4672 19.775 24.0298 19.2124C24.5924 18.6498 25.3555 18.3337 26.1512 18.3337ZM26.1512 16.3337C25.069 16.3318 24.0157 16.6829 23.1512 17.3337C22.1608 16.6023 20.9354 16.262 19.7097 16.3779C18.484 16.4939 17.3441 17.0581 16.5085 17.9623C15.6729 18.8665 15.2003 20.0472 15.1813 21.2783C15.1622 22.5093 15.598 23.7041 16.4052 24.6337C16.9672 25.2777 20.6662 28.7417 21.7862 29.7877C22.1567 30.1342 22.6449 30.3269 23.1522 30.3269C23.6594 30.3269 24.1477 30.1342 24.5182 29.7877C25.6342 28.7427 29.3182 25.2877 29.8872 24.6447C30.5241 23.924 30.9396 23.035 31.0839 22.0841C31.2283 21.1332 31.0953 20.1609 30.701 19.2837C30.3067 18.4065 29.6677 17.6616 28.8607 17.1384C28.0537 16.6151 27.1129 16.3358 26.1512 16.3337Z" fill="#33A0FF"/>
<path opacity="0.1" d="M42.168 0.33374H4.16797C1.95883 0.33374 0.167969 2.1246 0.167969 4.33374V42.3337C0.167969 44.5429 1.95883 46.3337 4.16797 46.3337H42.168C44.3771 46.3337 46.168 44.5429 46.168 42.3337V4.33374C46.168 2.1246 44.3771 0.33374 42.168 0.33374Z" fill="#33A0FF"/>
</svg>
