<svg width="76" height="60" viewBox="0 0 76 60" fill="none" xmlns="http://www.w3.org/2000/svg">
<rect x="0.154297" y="0.393066" width="75" height="59" fill="white"/>
<path d="M35.3418 37.3931C35.6525 37.3931 35.9043 37.1412 35.9043 36.8306C35.9043 36.5199 35.6525 36.2681 35.3418 36.2681C35.0311 36.2681 34.7793 36.5199 34.7793 36.8306C34.7793 37.1412 35.0311 37.3931 35.3418 37.3931Z" fill="#22262A" stroke="#22262A" stroke-width="2" stroke-miterlimit="10" stroke-linecap="round" stroke-linejoin="round"/>
<path d="M43.2168 37.3931C43.5275 37.3931 43.7793 37.1412 43.7793 36.8306C43.7793 36.5199 43.5275 36.2681 43.2168 36.2681C42.9061 36.2681 42.6543 36.5199 42.6543 36.8306C42.6543 37.1412 42.9061 37.3931 43.2168 37.3931Z" fill="#22262A" stroke="#22262A" stroke-width="2" stroke-miterlimit="10" stroke-linecap="round" stroke-linejoin="round"/>
<path d="M29.1543 19.3931H31.4043L33.6543 32.8931H44.9043L47.1543 22.7681H32.5293" stroke="#22262A" stroke-width="2" stroke-linecap="round" stroke-linejoin="round"/>
</svg>
