<svg width="228" height="27" viewBox="0 0 228 27" fill="none" xmlns="http://www.w3.org/2000/svg">
<g opacity="0.5">
<path opacity="0.5" d="M13.9272 25.8337C20.5547 25.8337 25.9272 20.4612 25.9272 13.8337C25.9272 7.20632 20.5547 1.83374 13.9272 1.83374C7.29983 1.83374 1.92725 7.20632 1.92725 13.8337C1.92725 20.4612 7.29983 25.8337 13.9272 25.8337Z" stroke="#006CFF" stroke-width="2" stroke-linejoin="round"/>
</g>
<path d="M13.9272 21.8337C18.3455 21.8337 21.9272 18.252 21.9272 13.8337C21.9272 9.41546 18.3455 5.83374 13.9272 5.83374C9.50897 5.83374 5.92725 9.41546 5.92725 13.8337C5.92725 18.252 9.50897 21.8337 13.9272 21.8337Z" fill="#006CFF"/>
<path d="M53.9272 23.8337C59.4501 23.8337 63.9272 19.3566 63.9272 13.8337C63.9272 8.31089 59.4501 3.83374 53.9272 3.83374C48.4044 3.83374 43.9272 8.31089 43.9272 13.8337C43.9272 19.3566 48.4044 23.8337 53.9272 23.8337Z" fill="#FC3E39"/>
<path d="M94.9272 23.8337C100.45 23.8337 104.927 19.3566 104.927 13.8337C104.927 8.31089 100.45 3.83374 94.9272 3.83374C89.4044 3.83374 84.9272 8.31089 84.9272 13.8337C84.9272 19.3566 89.4044 23.8337 94.9272 23.8337Z" fill="#171717"/>
<path d="M135.927 23.8337C141.45 23.8337 145.927 19.3566 145.927 13.8337C145.927 8.31089 141.45 3.83374 135.927 3.83374C130.404 3.83374 125.927 8.31089 125.927 13.8337C125.927 19.3566 130.404 23.8337 135.927 23.8337Z" fill="#FFF600"/>
<path d="M176.927 23.8337C182.45 23.8337 186.927 19.3566 186.927 13.8337C186.927 8.31089 182.45 3.83374 176.927 3.83374C171.404 3.83374 166.927 8.31089 166.927 13.8337C166.927 19.3566 171.404 23.8337 176.927 23.8337Z" fill="#FF00B4"/>
<path d="M217.927 23.8337C223.45 23.8337 227.927 19.3566 227.927 13.8337C227.927 8.31089 223.45 3.83374 217.927 3.83374C212.404 3.83374 207.927 8.31089 207.927 13.8337C207.927 19.3566 212.404 23.8337 217.927 23.8337Z" fill="#EFDFDF"/>
</svg>
