<svg width="151" height="29" viewBox="0 0 151 29" fill="none" xmlns="http://www.w3.org/2000/svg">
<g opacity="0.5">
<path opacity="0.5" d="M14.08 27.4678C20.949 27.4678 26.5174 21.755 26.5174 14.7078C26.5174 7.66068 20.949 1.94785 14.08 1.94785C7.21099 1.94785 1.64258 7.66068 1.64258 14.7078C1.64258 21.755 7.21099 27.4678 14.08 27.4678Z" stroke="#006CFF" stroke-width="2" stroke-linejoin="round"/>
</g>
<path d="M14.0807 23.2145C18.66 23.2145 22.3723 19.4059 22.3723 14.7078C22.3723 10.0097 18.66 6.20117 14.0807 6.20117C9.50135 6.20117 5.78906 10.0097 5.78906 14.7078C5.78906 19.4059 9.50135 23.2145 14.0807 23.2145Z" fill="#006CFF"/>
<path d="M55.5393 25.3412C61.2635 25.3412 65.9039 20.5805 65.9039 14.7078C65.9039 8.8352 61.2635 4.07449 55.5393 4.07449C49.8152 4.07449 45.1748 8.8352 45.1748 14.7078C45.1748 20.5805 49.8152 25.3412 55.5393 25.3412Z" fill="#FC3E39"/>
<path d="M98.0335 25.3412C103.758 25.3412 108.398 20.5805 108.398 14.7078C108.398 8.8352 103.758 4.07449 98.0335 4.07449C92.3093 4.07449 87.6689 8.8352 87.6689 14.7078C87.6689 20.5805 92.3093 25.3412 98.0335 25.3412Z" fill="#171717"/>
<path d="M140.528 25.3412C146.252 25.3412 150.892 20.5805 150.892 14.7078C150.892 8.8352 146.252 4.07449 140.528 4.07449C134.803 4.07449 130.163 8.8352 130.163 14.7078C130.163 20.5805 134.803 25.3412 140.528 25.3412Z" fill="#FFF600"/>
</svg>
