<svg width="9" height="16" viewBox="0 0 9 16" fill="none" xmlns="http://www.w3.org/2000/svg">
<path d="M0.808037 8.28505H2.46603V15.1131C2.46603 15.1778 2.49175 15.2398 2.53751 15.2856C2.58327 15.3313 2.64532 15.3571 2.71004 15.3571H5.52203C5.58675 15.3571 5.64881 15.3313 5.69456 15.2856C5.74032 15.2398 5.76604 15.1778 5.76604 15.1131V8.31705H7.67303C7.73283 8.31696 7.79052 8.29491 7.83513 8.25509C7.87974 8.21527 7.90818 8.16045 7.91504 8.10105L8.20503 5.58705C8.20898 5.55291 8.20567 5.51831 8.19531 5.48554C8.18496 5.45276 8.16779 5.42254 8.14494 5.39686C8.1221 5.37118 8.09408 5.35062 8.06273 5.33652C8.03138 5.32242 7.9974 5.31511 7.96303 5.31505H5.76303V3.74005C5.76303 3.26505 6.01904 3.02405 6.52304 3.02405H7.95903C8.02374 3.02405 8.0858 2.99834 8.13156 2.95258C8.17732 2.90683 8.20303 2.84476 8.20303 2.78005V0.473051C8.20357 0.40868 8.17865 0.346704 8.1337 0.300627C8.08874 0.25455 8.02739 0.228104 7.96303 0.227051L5.98204 0.227051H5.89104C4.97882 0.23027 4.09833 0.562228 3.41104 1.16205C3.08673 1.44547 2.83789 1.80502 2.6869 2.2084C2.53592 2.61177 2.48752 3.04634 2.54604 3.47305V5.31605H0.805031C0.740318 5.31605 0.678259 5.34176 0.6325 5.38752C0.586741 5.43328 0.561035 5.49534 0.561035 5.56005V8.04105C0.561033 8.07335 0.567438 8.10532 0.579887 8.13512C0.592337 8.16492 0.610584 8.19196 0.63356 8.21465C0.656536 8.23735 0.683787 8.25526 0.713737 8.26735C0.743688 8.27943 0.775743 8.28545 0.808037 8.28505Z" fill="#385C8E"/>
</svg>
