<svg width="9" height="16" viewBox="0 0 9 16" fill="none" xmlns="http://www.w3.org/2000/svg">
<path d="M0.754814 8.2997H2.41281V15.1277C2.41281 15.1924 2.43852 15.2545 2.48428 15.3002C2.53004 15.346 2.5921 15.3717 2.65681 15.3717H5.46881C5.53352 15.3717 5.59558 15.346 5.64134 15.3002C5.6871 15.2545 5.71281 15.1924 5.71281 15.1277V8.3317H7.61981C7.67961 8.3316 7.73729 8.30955 7.78191 8.26974C7.82652 8.22992 7.85495 8.1751 7.86182 8.1157L8.15181 5.6017C8.15575 5.56755 8.15245 5.53296 8.14209 5.50018C8.13173 5.46741 8.11457 5.43719 8.09172 5.41151C8.06887 5.38583 8.04085 5.36527 8.00951 5.35117C7.97816 5.33707 7.94418 5.32975 7.90981 5.3297H5.70981V3.7547C5.70981 3.2797 5.96582 3.0387 6.46982 3.0387H7.90581C7.97052 3.0387 8.03258 3.01299 8.07834 2.96723C8.1241 2.92147 8.14981 2.85941 8.14981 2.7947V0.487699C8.15035 0.423328 8.12543 0.361353 8.08047 0.315276C8.03552 0.269198 7.97417 0.242752 7.90981 0.241699L5.92882 0.241699H5.83781C4.92559 0.244918 4.04511 0.576876 3.35782 1.1767C3.0335 1.46012 2.78466 1.81967 2.63368 2.22304C2.4827 2.62642 2.4343 3.06099 2.49281 3.4877V5.3307H0.751808C0.687095 5.3307 0.625036 5.35641 0.579277 5.40216C0.533518 5.44792 0.507813 5.50999 0.507813 5.5747V8.0557C0.50781 8.088 0.514215 8.11997 0.526665 8.14977C0.539114 8.17957 0.557361 8.20661 0.580338 8.2293C0.603314 8.252 0.630564 8.26991 0.660515 8.28199C0.690465 8.29408 0.72252 8.3001 0.754814 8.2997Z" fill="#385C8E"/>
</svg>
