<svg width="145" height="4" viewBox="0 0 145 4" fill="none" xmlns="http://www.w3.org/2000/svg">
<path d="M142.702 0.384247H114.008C113.128 0.384247 112.414 1.09835 112.414 1.97925C112.414 2.86014 113.128 3.57425 114.008 3.57425H142.702C143.583 3.57425 144.296 2.86014 144.296 1.97925C144.296 1.09835 143.583 0.384247 142.702 0.384247Z" fill="#F1F3F4"/>
<path d="M105.506 0.384247H76.8119C75.9315 0.384247 75.2178 1.09835 75.2178 1.97925C75.2178 2.86014 75.9315 3.57425 76.8119 3.57425H105.506C106.386 3.57425 107.1 2.86014 107.1 1.97925C107.1 1.09835 106.386 0.384247 105.506 0.384247Z" fill="#F1F3F4"/>
<path d="M68.3106 0.384247H39.6166C38.7362 0.384247 38.0225 1.09835 38.0225 1.97925C38.0225 2.86014 38.7362 3.57425 39.6166 3.57425H68.3106C69.191 3.57425 69.9047 2.86014 69.9047 1.97925C69.9047 1.09835 69.191 0.384247 68.3106 0.384247Z" fill="#33A0FF"/>
<path d="M31.1143 0.384247H2.42028C1.53988 0.384247 0.826172 1.09835 0.826172 1.97925C0.826172 2.86014 1.53988 3.57425 2.42028 3.57425H31.1143C31.9947 3.57425 32.7084 2.86014 32.7084 1.97925C32.7084 1.09835 31.9947 0.384247 31.1143 0.384247Z" fill="#F1F3F4"/>
</svg>
