<svg width="50" height="50" viewBox="0 0 50 50" fill="none" xmlns="http://www.w3.org/2000/svg">
<path fill-rule="evenodd" clip-rule="evenodd" d="M28.4048 19.9409C29.0186 19.9419 29.6191 20.1202 30.1341 20.4544C30.6491 20.7885 31.0568 21.2643 31.3082 21.8245C31.5595 22.3848 31.6439 23.0058 31.5511 23.6129C31.4584 24.22 31.1925 24.7874 30.7853 25.2469C30.2008 25.9062 25.2166 30.5743 25.2166 30.5743C25.2166 30.5743 20.2218 25.9062 19.6373 25.2363C19.1217 24.6566 18.8379 23.907 18.8402 23.1309C18.8402 22.2849 19.1761 21.4735 19.774 20.8752C20.3719 20.277 21.1829 19.9409 22.0284 19.9409C22.874 19.9409 23.6849 20.277 24.2828 20.8752C24.8807 21.4735 25.2166 22.2849 25.2166 23.1309C25.2166 22.2849 25.5525 21.4735 26.1504 20.8752C26.7483 20.277 27.5593 19.9409 28.4048 19.9409ZM28.4048 17.8143C27.2548 17.8122 26.1354 18.1855 25.2166 18.8776C24.1641 18.0998 22.8619 17.7379 21.5593 17.8613C20.2567 17.9846 19.0453 18.5845 18.1573 19.5459C17.2693 20.5074 16.767 21.7629 16.7467 23.0719C16.7265 24.3809 17.1896 25.6514 18.0475 26.6399C18.6447 27.3247 22.5757 31.0081 23.766 32.1203C24.1597 32.4887 24.6786 32.6936 25.2177 32.6936C25.7567 32.6936 26.2757 32.4887 26.6694 32.1203C27.8554 31.0091 31.7705 27.3353 32.3752 26.6516C33.0521 25.8853 33.4936 24.9399 33.647 23.9288C33.8004 22.9177 33.6591 21.8838 33.2401 20.951C32.821 20.0183 32.142 19.2262 31.2843 18.6698C30.4267 18.1135 29.4269 17.8164 28.4048 17.8143Z" fill="#33A0FF"/>
<path opacity="0.1" d="M45.4271 0.800995H5.04295C2.69521 0.800995 0.791992 2.70527 0.791992 5.05432V45.4609C0.791992 47.81 2.69521 49.7142 5.04295 49.7142H45.4271C47.7748 49.7142 49.678 47.81 49.678 45.4609V5.05432C49.678 2.70527 47.7748 0.800995 45.4271 0.800995Z" fill="#33A0FF"/>
</svg>
