<svg width="87" height="13" viewBox="0 0 87 13" fill="none" xmlns="http://www.w3.org/2000/svg">
<path d="M49.8913 5.36548L45.9053 8.12842L47.0753 12.6185L43.2033 9.90649L39.0813 12.4745L40.6733 8.03442L36.9563 5.13452L41.8123 5.10242L43.6373 0.740479L45.0463 5.16052L49.8913 5.36548Z" fill="#FFC600"/>
<path d="M31.6213 5.36548L27.6363 8.12842L28.8063 12.6185L24.9343 9.90649L20.8123 12.4745L22.4043 8.03442L18.6863 5.13452L23.5433 5.10242L25.3683 0.740479L26.7773 5.16052L31.6213 5.36548Z" fill="#FFC600"/>
<path d="M13.3513 5.36548L9.36627 8.12842L10.5363 12.6185L6.66327 9.90649L2.54129 12.4745L4.13327 8.03442L0.415283 5.13452L5.27127 5.10242L7.09628 0.740479L8.50528 5.16052L13.3513 5.36548Z" fill="#FFC600"/>
<path d="M68.1623 5.36548L64.1772 8.12842L65.3473 12.6185L61.4753 9.90649L57.3533 12.4745L58.9453 8.03442L55.2273 5.13452L60.0843 5.10242L61.9093 0.740479L63.3183 5.16052L68.1623 5.36548Z" fill="#FFC600"/>
<path d="M86.4333 5.36548L82.4473 8.12842L83.6174 12.6185L79.7443 9.90649L75.6224 12.4745L77.2144 8.03442L73.4963 5.13452L78.3524 5.10242L80.1774 0.740479L81.5864 5.16052L86.4333 5.36548Z" fill="#C1C8CE"/>
</svg>
