<svg width="125" height="16" viewBox="0 0 125 16" fill="none" xmlns="http://www.w3.org/2000/svg">
<path d="M69.3922 6.15234L65.1407 9.67432L66.3915 15.3983L62.2605 11.9403L57.8635 15.2144L59.5623 9.55432L55.5962 5.85437L60.7767 5.81433L62.7233 0.253418L64.2265 5.8894L69.3922 6.15234Z" fill="#FFC600"/>
<path d="M41.941 6.15234L37.6895 9.67432L38.9403 15.3983L34.8093 11.9403L30.4123 15.2144L32.1111 9.55432L28.145 5.85437L33.3255 5.81433L35.2721 0.253418L36.7753 5.8894L41.941 6.15234Z" fill="#FFC600"/>
<path d="M14.4923 6.15234L10.2408 9.67432L11.4916 15.3983L7.36061 11.9403L2.96358 15.2144L4.66237 9.55432L0.696289 5.85437L5.87675 5.81433L7.82341 0.253418L9.3266 5.8894L14.4923 6.15234Z" fill="#FFC600"/>
<path d="M96.8419 6.15234L92.5905 9.67432L93.8412 15.3983L89.7103 11.9403L85.3132 15.2144L87.012 9.55432L83.0459 5.85437L88.2264 5.81433L90.173 0.253418L91.6762 5.8894L96.8419 6.15234Z" fill="#FFC600"/>
<path d="M124.293 6.15234L120.041 9.67432L121.292 15.3983L117.161 11.9403L112.764 15.2144L114.463 9.55432L110.497 5.85437L115.677 5.81433L117.624 0.253418L119.127 5.8894L124.293 6.15234Z" fill="#C1C8CE"/>
</svg>
