<svg width="124" height="17" viewBox="0 0 124 17" fill="none" xmlns="http://www.w3.org/2000/svg">
<path d="M68.7921 6.78992L64.5406 10.3119L65.7914 16.0359L61.6604 12.5779L57.2634 15.8519L58.9622 10.1919L54.9961 6.49194L60.1766 6.4519L62.1232 0.890991L63.6264 6.52698L68.7921 6.78992Z" fill="#FFC600"/>
<path d="M41.3409 6.78992L37.0894 10.3119L38.3402 16.0359L34.2092 12.5779L29.8122 15.8519L31.511 10.1919L27.5449 6.49194L32.7254 6.4519L34.672 0.890991L36.1752 6.52698L41.3409 6.78992Z" fill="#FFC600"/>
<path d="M13.8922 6.78992L9.64072 10.3119L10.8915 16.0359L6.76051 12.5779L2.36348 15.8519L4.06228 10.1919L0.0961914 6.49194L5.27665 6.4519L7.22331 0.890991L8.7265 6.52698L13.8922 6.78992Z" fill="#FFC600"/>
<path d="M96.2418 6.78992L91.9904 10.3119L93.2411 16.0359L89.1102 12.5779L84.7131 15.8519L86.4119 10.1919L82.4458 6.49194L87.6263 6.4519L89.5729 0.890991L91.0761 6.52698L96.2418 6.78992Z" fill="#FFC600"/>
<path d="M123.692 6.78992L119.441 10.3119L120.692 16.0359L116.561 12.5779L112.164 15.8519L113.863 10.1919L109.896 6.49194L115.077 6.4519L117.024 0.890991L118.527 6.52698L123.692 6.78992Z" fill="#C1C8CE"/>
</svg>
