<svg width="73" height="11" viewBox="0 0 73 11" fill="none" xmlns="http://www.w3.org/2000/svg">
<path d="M41.8177 3.98174L38.4627 6.30779L39.4477 10.0878L36.1877 7.80473L32.7177 9.96684L34.0577 6.22881L30.9287 3.78581L35.0167 3.75883L36.5527 0.0868378L37.7387 3.80779L41.8177 3.98174Z" fill="#FFC600"/>
<path d="M26.4369 3.98174L23.0818 6.30779L24.0668 10.0878L20.8069 7.80473L17.3369 9.96684L18.6768 6.22881L15.5479 3.78581L19.6358 3.75883L21.1718 0.0868378L22.3578 3.80779L26.4369 3.98174Z" fill="#FFC600"/>
<path d="M11.057 3.98174L7.70197 6.30779L8.68698 10.0878L5.42697 7.80473L1.95697 9.96684L3.29697 6.22881L0.167969 3.78581L4.25598 3.75883L5.79196 0.0868378L6.97797 3.80779L11.057 3.98174Z" fill="#FFC600"/>
<path d="M57.1971 3.98174L53.8421 6.30779L54.8271 10.0878L51.5671 7.80473L48.0971 9.96684L49.4371 6.22881L46.3081 3.78581L50.3961 3.75883L51.9321 0.0868378L53.1181 3.80779L57.1971 3.98174Z" fill="#FFC600"/>
<path d="M72.5779 3.98174L69.223 6.30779L70.2079 10.0878L66.9479 7.80473L63.478 9.96684L64.8179 6.22881L61.689 3.78581L65.7769 3.75883L67.3129 0.0868378L68.499 3.80779L72.5779 3.98174Z" fill="#C1C8CE"/>
</svg>
