<svg width="78" height="12" viewBox="0 0 78 12" fill="none" xmlns="http://www.w3.org/2000/svg">
<path d="M44.453 4.70388L40.8876 7.17725L41.9343 11.1967L38.4698 8.769L34.7821 11.068L36.2062 7.09326L32.8809 4.49555L37.2254 4.46687L38.8577 0.562317L40.1181 4.51892L44.453 4.70388Z" fill="#FFC600"/>
<path d="M28.1073 4.70388L24.5418 7.17725L25.5886 11.1967L22.1241 8.769L18.4364 11.068L19.8605 7.09326L16.5352 4.49555L20.8796 4.46687L22.512 0.562317L23.7724 4.51892L28.1073 4.70388Z" fill="#FFC600"/>
<path d="M11.7626 4.70388L8.1971 7.17725L9.24392 11.1967L5.77938 8.769L2.09167 11.068L3.51574 7.09326L0.19043 4.49555L4.53492 4.46687L6.16727 0.562317L7.42768 4.51892L11.7626 4.70388Z" fill="#FFC600"/>
<path d="M60.7978 4.70388L57.2323 7.17725L58.2791 11.1967L54.8146 8.769L51.1268 11.068L52.5509 7.09326L49.2256 4.49555L53.5701 4.46687L55.2025 0.562317L56.4628 4.51892L60.7978 4.70388Z" fill="#FFC600"/>
<path d="M77.1434 4.70388L73.578 7.17725L74.6247 11.1967L71.1602 8.769L67.4725 11.068L68.8966 7.09326L65.5713 4.49555L69.9157 4.46687L71.5481 0.562317L72.8085 4.51892L77.1434 4.70388Z" fill="#C1C8CE"/>
</svg>
