<svg width="73" height="11" viewBox="0 0 73 11" fill="none" xmlns="http://www.w3.org/2000/svg">
<path d="M41.8177 3.98175L38.4627 6.3078L39.4477 10.0878L36.1877 7.80475L32.7177 9.96686L34.0577 6.22882L30.9287 3.78583L35.0167 3.75885L36.5527 0.086853L37.7387 3.8078L41.8177 3.98175Z" fill="#FFC600"/>
<path d="M26.4369 3.98175L23.0818 6.3078L24.0668 10.0878L20.8069 7.80475L17.3369 9.96686L18.6768 6.22882L15.5479 3.78583L19.6358 3.75885L21.1718 0.086853L22.3578 3.8078L26.4369 3.98175Z" fill="#FFC600"/>
<path d="M11.057 3.98175L7.70197 6.3078L8.68698 10.0878L5.42697 7.80475L1.95697 9.96686L3.29697 6.22882L0.167969 3.78583L4.25598 3.75885L5.79196 0.086853L6.97797 3.8078L11.057 3.98175Z" fill="#FFC600"/>
<path d="M57.1971 3.98175L53.8421 6.3078L54.8271 10.0878L51.5671 7.80475L48.0971 9.96686L49.4371 6.22882L46.3081 3.78583L50.3961 3.75885L51.9321 0.086853L53.1181 3.8078L57.1971 3.98175Z" fill="#FFC600"/>
<path d="M72.5779 3.98175L69.223 6.3078L70.2079 10.0878L66.9479 7.80475L63.478 9.96686L64.8179 6.22882L61.689 3.78583L65.7769 3.75885L67.3129 0.086853L68.499 3.8078L72.5779 3.98175Z" fill="#C1C8CE"/>
</svg>
