<svg width="125" height="16" viewBox="0 0 125 16" fill="none" xmlns="http://www.w3.org/2000/svg">
<path d="M69.6427 6.15234L65.3912 9.67432L66.6419 15.3983L62.511 11.9403L58.114 15.2144L59.8128 9.55432L55.8467 5.85437L61.0271 5.81433L62.9738 0.253418L64.477 5.8894L69.6427 6.15234Z" fill="#FFC600"/>
<path d="M42.1915 6.15234L37.94 9.67432L39.1908 15.3983L35.0598 11.9403L30.6628 15.2144L32.3616 9.55432L28.3955 5.85437L33.576 5.81433L35.5226 0.253418L37.0258 5.8894L42.1915 6.15234Z" fill="#FFC600"/>
<path d="M14.7428 6.15234L10.4913 9.67432L11.742 15.3983L7.6111 11.9403L3.21407 15.2144L4.91286 9.55432L0.946777 5.85437L6.12724 5.81433L8.0739 0.253418L9.57709 5.8894L14.7428 6.15234Z" fill="#FFC600"/>
<path d="M97.0924 6.15234L92.8409 9.67432L94.0917 15.3983L89.9607 11.9403L85.5637 15.2144L87.2625 9.55432L83.2964 5.85437L88.4769 5.81433L90.4235 0.253418L91.9267 5.8894L97.0924 6.15234Z" fill="#FFC600"/>
<path d="M124.543 6.15234L120.292 9.67432L121.542 15.3983L117.411 11.9403L113.014 15.2144L114.713 9.55432L110.747 5.85437L115.927 5.81433L117.874 0.253418L119.377 5.8894L124.543 6.15234Z" fill="#C1C8CE"/>
</svg>
