<svg width="78" height="11" viewBox="0 0 78 11" fill="none" xmlns="http://www.w3.org/2000/svg">
<path d="M45.0331 4.43677L41.4676 6.91013L42.5144 10.9296L39.0499 8.50188L35.3622 10.8009L36.7863 6.82615L33.4609 4.22844L37.8054 4.19976L39.4378 0.295212L40.6982 4.25181L45.0331 4.43677Z" fill="#FFC600"/>
<path d="M28.6876 4.43677L25.1221 6.91013L26.1689 10.9296L22.7043 8.50188L19.0165 10.8009L20.4406 6.82615L17.1152 4.22844L21.4598 4.19976L23.0922 0.295212L24.3526 4.25181L28.6876 4.43677Z" fill="#FFC600"/>
<path d="M12.3427 4.43677L8.77716 6.91013L9.82397 10.9296L6.35944 8.50188L2.67174 10.8009L4.09581 6.82615L0.770508 4.22844L5.11499 4.19976L6.74733 0.295212L8.00774 4.25181L12.3427 4.43677Z" fill="#FFC600"/>
<path d="M61.3779 4.43677L57.8124 6.91013L58.8592 10.9296L55.3947 8.50188L51.7069 10.8009L53.131 6.82615L49.8057 4.22844L54.1502 4.19976L55.7826 0.295212L57.043 4.25181L61.3779 4.43677Z" fill="#FFC600"/>
<path d="M77.7236 4.43677L74.1581 6.91013L75.2049 10.9296L71.7403 8.50188L68.0526 10.8009L69.4767 6.82615L66.1514 4.22844L70.4958 4.19976L72.1282 0.295212L73.3887 4.25181L77.7236 4.43677Z" fill="#C1C8CE"/>
</svg>
