<svg width="19" height="19" viewBox="0 0 19 19" fill="none" xmlns="http://www.w3.org/2000/svg">
<path d="M9.92551 18.1398C8.39443 18.1397 6.88883 17.748 5.55173 17.0021C4.21463 16.2563 3.09045 15.1808 2.28598 13.8781C1.48152 12.5754 1.02349 11.0888 0.955414 9.55928C0.88734 8.02971 1.21151 6.50789 1.89706 5.13887C2.58262 3.76985 3.60685 2.59923 4.87241 1.7375C6.13796 0.87577 7.60276 0.351712 9.12778 0.215528C10.6528 0.0793446 12.1873 0.335325 13.5855 0.959181C14.9838 1.58304 16.1993 2.55409 17.1165 3.77998H15.9166V4.38008H17.5295C17.6505 4.57108 17.7646 4.76895 17.8706 4.96895H15.3165V5.56904H18.1595C18.2475 5.76904 18.3266 5.96914 18.3966 6.16914H14.7165V6.76875H18.5846C19.0707 8.54274 19.0037 10.423 18.3925 12.1579H14.7165V12.758H18.1555C18.0655 12.965 17.9686 13.1578 17.8706 13.3488H15.3165V13.9489H17.5226C17.3896 14.1589 17.2506 14.36 17.1096 14.549H15.9166V15.1491H16.6165C15.7738 16.0895 14.7424 16.8418 13.5896 17.3571C12.4367 17.8725 11.1883 18.139 9.92551 18.1398Z" fill="#E63737"/>
</svg>
