<svg width="19" height="19" viewBox="0 0 19 19" fill="none" xmlns="http://www.w3.org/2000/svg">
<path d="M0.70459 9.16076C0.704985 7.385 1.23193 5.64927 2.21875 4.17296C3.20557 2.69666 4.60798 1.54613 6.24866 0.866809C7.88933 0.187487 9.69456 0.00995407 11.4362 0.356556C13.1778 0.703157 14.7775 1.55836 16.0331 2.81407C17.2887 4.06979 18.1437 5.66961 18.4901 7.41124C18.8365 9.15288 18.6586 10.9581 17.9791 12.5987C17.2996 14.2393 16.149 15.6414 14.6726 16.628C13.1962 17.6147 11.4603 18.1415 9.68457 18.1417C8.50522 18.1417 7.33737 17.9095 6.2478 17.4581C5.15823 17.0068 4.16823 16.3453 3.33435 15.5113C2.50047 14.6774 1.83905 13.6874 1.38782 12.5978C0.936589 11.5081 0.704459 10.3401 0.70459 9.16076Z" fill="#FFAF38"/>
</svg>
