<svg width="238" height="15" viewBox="0 0 238 15" fill="none" xmlns="http://www.w3.org/2000/svg">
<path opacity="0.1" d="M230.927 5.83374H0.927246V9.83374H230.927V5.83374Z" fill="#22262A"/>
<path d="M230.927 5.83374H26.9272V9.83374H230.927V5.83374Z" fill="#2E90E5"/>
<path d="M26.9272 12.8337C29.6887 12.8337 31.9272 10.5952 31.9272 7.83374C31.9272 5.07232 29.6887 2.83374 26.9272 2.83374C24.1658 2.83374 21.9272 5.07232 21.9272 7.83374C21.9272 10.5952 24.1658 12.8337 26.9272 12.8337Z" fill="#2E90E5"/>
<path d="M26.9272 13.8337C30.241 13.8337 32.9272 11.1474 32.9272 7.83374C32.9272 4.52003 30.241 1.83374 26.9272 1.83374C23.6135 1.83374 20.9272 4.52003 20.9272 7.83374C20.9272 11.1474 23.6135 13.8337 26.9272 13.8337Z" stroke="white" stroke-width="2"/>
<path d="M230.927 12.8337C233.689 12.8337 235.927 10.5952 235.927 7.83374C235.927 5.07232 233.689 2.83374 230.927 2.83374C228.166 2.83374 225.927 5.07232 225.927 7.83374C225.927 10.5952 228.166 12.8337 230.927 12.8337Z" fill="#2E90E5"/>
<path d="M230.927 13.8337C234.241 13.8337 236.927 11.1474 236.927 7.83374C236.927 4.52003 234.241 1.83374 230.927 1.83374C227.614 1.83374 224.927 4.52003 224.927 7.83374C224.927 11.1474 227.614 13.8337 230.927 13.8337Z" stroke="white" stroke-width="2"/>
</svg>
