<svg width="43" height="31" viewBox="0 0 43 31" fill="none" xmlns="http://www.w3.org/2000/svg">
<path fill-rule="evenodd" clip-rule="evenodd" d="M5.96387 0.198486H13.7971V9.42927L0.963867 9.42927V5.19849C0.963867 2.43706 3.20244 0.198486 5.96387 0.198486ZM0.963867 11.737L13.7971 11.737V18.66H0.963867V11.737ZM0.963867 20.9677V25.1985C0.963867 27.9599 3.20244 30.1985 5.96387 30.1985H13.7971V20.9677H0.963867ZM27.7972 30.1985H16.1305V0.198486H37.9639C40.7253 0.198486 42.9639 2.43706 42.9639 5.19849V9.42927L30.1305 9.42927L28.3806 9.42927L27.7972 9.42927V30.1985ZM30.1305 11.737L42.9639 11.737V18.66H30.1305V11.737ZM30.1305 20.9677V30.1985H37.9639C40.7253 30.1985 42.9639 27.9599 42.9639 25.1985V20.9677H30.1305Z" fill="#DFDEDE"/>
<path fill-rule="evenodd" clip-rule="evenodd" d="M5.96387 0.198486H13.7971V9.42927L0.963867 9.42927V5.19849C0.963867 2.43706 3.20244 0.198486 5.96387 0.198486ZM0.963867 11.737L13.7971 11.737V18.66H0.963867V11.737ZM0.963867 20.9677V25.1985C0.963867 27.9599 3.20244 30.1985 5.96387 30.1985H13.7971V20.9677H0.963867ZM27.7972 30.1985H16.1305V0.198486H37.9639C40.7253 0.198486 42.9639 2.43706 42.9639 5.19849V9.42927L30.1305 9.42927L28.3806 9.42927L27.7972 9.42927V30.1985ZM30.1305 11.737L42.9639 11.737V18.66H30.1305V11.737ZM30.1305 20.9677V30.1985H37.9639C40.7253 30.1985 42.9639 27.9599 42.9639 25.1985V20.9677H30.1305Z" fill="url(#paint0_linear_37_390)"/>
<defs>
<linearGradient id="paint0_linear_37_390" x1="21.9639" y1="0.198486" x2="21.9639" y2="30.1985" gradientUnits="userSpaceOnUse">
<stop stop-color="white"/>
<stop offset="1" stop-color="white" stop-opacity="0"/>
</linearGradient>
</defs>
</svg>
