<svg width="56" height="59" viewBox="0 0 56 59" fill="none" xmlns="http://www.w3.org/2000/svg">
<path d="M55.5624 0.83374H0.299805V58.8337H55.5624V0.83374Z" fill="#F1F3F4"/>
<path d="M21.2989 19.8337H16.8779V23.8337H21.2989V19.8337Z" fill="#C1C8CE"/>
<path d="M21.2989 27.8337H16.8779V31.8337H21.2989V27.8337Z" fill="#C1C8CE"/>
<path d="M21.2989 35.8337H16.8779V39.8337H21.2989V35.8337Z" fill="#C1C8CE"/>
<path d="M30.1417 19.8337H25.7207V23.8337H30.1417V19.8337Z" fill="#C1C8CE"/>
<path d="M30.1417 27.8337H25.7207V31.8337H30.1417V27.8337Z" fill="#C1C8CE"/>
<path d="M25.7207 35.8337H30.1417V39.8337H25.7207V35.8337Z" fill="#C1C8CE"/>
<path d="M38.9835 19.8337H34.5625V23.8337H38.9835V19.8337Z" fill="#C1C8CE"/>
<path d="M38.9835 27.8337H34.5625V31.8337H38.9835V27.8337Z" fill="#C1C8CE"/>
<path d="M38.9835 35.8337H34.5625V39.8337H38.9835V35.8337Z" fill="#C1C8CE"/>
</svg>
