<svg width="26" height="24" viewBox="0 0 26 24" fill="none" xmlns="http://www.w3.org/2000/svg">
<path opacity="0.5" d="M18.2048 12.1182L25.3071 18.5553C25.7332 18.9415 25.9463 19.4565 25.9463 19.9715C25.9463 20.5508 25.7332 21.0658 25.3071 21.452L23.7446 22.8682C23.2474 23.2544 22.6792 23.4475 22.1111 23.4475C21.4719 23.4475 20.9747 23.2544 20.5486 22.8682L13.4463 16.4311L6.34402 22.8682C5.91788 23.2544 5.3497 23.4475 4.78152 23.4475C4.14231 23.4475 3.57413 23.2544 3.14799 22.8682L1.58549 21.452C1.15936 21.0658 0.946289 20.5508 0.946289 19.9715C0.946289 19.4565 1.15936 18.9415 1.58549 18.5553L8.68777 12.1182L1.58549 5.68104C1.15936 5.29481 0.946289 4.84421 0.946289 4.26487C0.946289 3.7499 1.15936 3.23493 1.58549 2.78433L3.14799 1.36816C3.57413 0.981932 4.14231 0.788818 4.78152 0.788818C5.3497 0.788818 5.91788 0.981932 6.34402 1.36816L13.4463 7.80529L20.5486 1.36816C20.9747 0.981932 21.4719 0.788818 22.1111 0.788818C22.6792 0.788818 23.2474 0.981932 23.7446 1.36816L25.3071 2.78433C25.7332 3.23493 25.9463 3.7499 25.9463 4.26487C25.9463 4.84421 25.7332 5.29481 25.3071 5.68104L18.2048 12.1182Z" fill="#40BFFF"/>
</svg>
