<svg width="16" height="13" viewBox="0 0 16 13" fill="none" xmlns="http://www.w3.org/2000/svg">
<path d="M15.0715 1.64857C14.5212 1.88869 13.9392 2.04833 13.3435 2.12257C13.9716 1.7501 14.4412 1.16017 14.6635 0.464568C14.0761 0.812936 13.4335 1.05846 12.7635 1.19057C12.3523 0.750528 11.8182 0.444425 11.2307 0.312091C10.6431 0.179757 10.0294 0.227317 9.46927 0.448585C8.90914 0.669852 8.42858 1.05458 8.0901 1.55271C7.75163 2.05085 7.57091 2.63932 7.57148 3.24157C7.56928 3.47146 7.59276 3.70088 7.64148 3.92557C6.4481 3.86698 5.28052 3.55719 4.21507 3.01645C3.14962 2.47571 2.21029 1.7162 1.45848 0.78757C1.07237 1.44747 0.952788 2.22988 1.12415 2.97498C1.29551 3.72008 1.74488 4.37164 2.38048 4.79657C1.90576 4.78397 1.44103 4.65741 1.02548 4.42757V4.46057C1.02612 5.15284 1.26505 5.82379 1.70211 6.36064C2.13917 6.8975 2.74772 7.26754 3.42548 7.40857C3.16874 7.47666 2.90408 7.51029 2.63848 7.50857C2.44786 7.51203 2.25743 7.49494 2.07048 7.45757C2.26408 8.05253 2.63723 8.57291 3.13862 8.94716C3.64001 9.32141 4.24502 9.53116 4.87048 9.54757C3.80987 10.3763 2.50244 10.8262 1.15648 10.8256C0.916513 10.8273 0.676689 10.8136 0.438477 10.7846C1.80964 11.6681 3.40733 12.1356 5.03848 12.1306C6.16172 12.1384 7.27533 11.923 8.31462 11.4968C9.35391 11.0706 10.2982 10.4422 11.0925 9.64804C11.8869 8.85386 12.5155 7.90975 12.942 6.87056C13.3684 5.83137 13.5841 4.71782 13.5765 3.59457C13.5765 3.46157 13.5765 3.33357 13.5655 3.20657C14.1581 2.78321 14.6685 2.25522 15.0715 1.64857Z" fill="#03A9F4"/>
</svg>
