<svg width="16" height="13" viewBox="0 0 16 13" fill="none" xmlns="http://www.w3.org/2000/svg">
<path d="M15.1247 1.63392C14.5744 1.87405 13.9925 2.03368 13.3967 2.10792C14.0248 1.73545 14.4945 1.14553 14.7167 0.44992C14.1293 0.798288 13.4867 1.04382 12.8167 1.17592C12.4055 0.73588 11.8714 0.429777 11.2839 0.297443C10.6964 0.165109 10.0826 0.212669 9.52249 0.433936C8.96236 0.655204 8.4818 1.03993 8.14332 1.53807C7.80485 2.0362 7.62414 2.62467 7.6247 3.22692C7.62251 3.45681 7.64598 3.68623 7.6947 3.91092C6.50132 3.85233 5.33375 3.54254 4.2683 3.0018C3.20285 2.46107 2.26351 1.70156 1.5117 0.772922C1.1256 1.43282 1.00601 2.21523 1.17737 2.96033C1.34873 3.70543 1.79811 4.357 2.4337 4.78192C1.95898 4.76932 1.49426 4.64276 1.0787 4.41292V4.44592C1.07934 5.13819 1.31827 5.80914 1.75533 6.346C2.1924 6.88285 2.80095 7.25289 3.4787 7.39392C3.22196 7.46202 2.95731 7.49564 2.6917 7.49392C2.50108 7.49738 2.31065 7.48029 2.1237 7.44292C2.3173 8.03788 2.69045 8.55826 3.19184 8.93251C3.69323 9.30677 4.29825 9.51652 4.9237 9.53292C3.8631 10.3616 2.55566 10.8115 1.2097 10.8109C0.969736 10.8126 0.729911 10.7989 0.491699 10.7699C1.86287 11.6534 3.46055 12.1209 5.0917 12.1159C6.21494 12.1238 7.32855 11.9083 8.36784 11.4822C9.40713 11.056 10.3514 10.4276 11.1457 9.63339C11.9401 8.83921 12.5688 7.8951 12.9952 6.85591C13.4216 5.81673 13.6373 4.70317 13.6297 3.57992C13.6297 3.44692 13.6297 3.31892 13.6187 3.19192C14.2113 2.76856 14.7217 2.24058 15.1247 1.63392Z" fill="#03A9F4"/>
</svg>
