<svg width="76" height="25" viewBox="0 0 76 25" fill="none" xmlns="http://www.w3.org/2000/svg">
<path d="M32.7502 24.2677H26.668L30.4723 0.954346H36.5542L32.7502 24.2677Z" fill="white"/>
<path d="M54.7989 1.52428C53.5992 1.05257 51.6964 0.531738 49.3436 0.531738C43.3371 0.531738 39.1074 3.70615 39.0815 8.2446C39.0316 11.5931 42.1098 13.4529 44.4121 14.5694C46.7652 15.7102 47.5651 16.4549 47.5651 17.4718C47.5412 19.0336 45.6637 19.7536 43.9125 19.7536C41.4842 19.7536 40.1831 19.3824 38.2057 18.5135L37.4048 18.141L36.5537 23.3743C37.9802 24.0184 40.6084 24.59 43.3371 24.6151C49.7191 24.6151 53.8739 21.4898 53.9231 16.6533C53.9474 13.9994 52.322 11.9659 48.8177 10.3042C46.6904 9.23747 45.3876 8.5182 45.3876 7.42677C45.4125 6.43456 46.4895 5.41829 48.8909 5.41829C50.8682 5.36851 52.321 5.83957 53.4216 6.31095L53.9717 6.55851L54.7989 1.52428Z" fill="white"/>
<path d="M62.8829 16.0086C63.3838 14.6693 65.3113 9.4857 65.3113 9.4857C65.286 9.53548 65.8112 8.12166 66.1115 7.25372L66.5366 9.26254C66.5366 9.26254 67.6884 14.843 67.9385 16.0086C66.9879 16.0086 64.0843 16.0086 62.8829 16.0086ZM70.3907 0.954346H65.6861C64.2353 0.954346 63.1331 1.37562 62.5071 2.88866L53.4727 24.2673H59.8546C59.8546 24.2673 60.9053 21.3899 61.1311 20.7702C61.8313 20.7702 68.0396 20.7702 68.9403 20.7702C69.1149 21.5887 69.666 24.2673 69.666 24.2673H75.2976L70.3907 0.954346Z" fill="white"/>
<path d="M21.5879 0.954346L15.6313 16.8518L14.9804 13.6276C13.8792 9.90731 10.4255 5.86529 6.57129 3.85549L12.0273 24.2429H18.4591L28.0194 0.954346H21.5879Z" fill="white"/>
<path d="M10.0998 0.954102H0.31398L0.213867 1.42515C7.84739 3.3598 12.9029 8.02318 14.98 13.6283L12.8527 2.9138C12.5025 1.42482 11.4262 1.00322 10.0998 0.954102Z" fill="white"/>
</svg>
